<?xml version="1.0" encoding="utf-8"?>
<!-- Generator: Adobe Illustrator 27.6.1, SVG Export Plug-In . SVG Version: 6.00 Build 0)  -->
<svg version="1.1" id="Warstwa_1" xmlns="http://www.w3.org/2000/svg" xmlns:xlink="http://www.w3.org/1999/xlink" x="0px" y="0px"
	 viewBox="0 0 140.3 150" style="enable-background:new 0 0 140.3 150;" xml:space="preserve">
<style type="text/css">
	.st0{fill-rule:evenodd;clip-rule:evenodd;fill:#FFFFFF;}
	.st1{fill-rule:evenodd;clip-rule:evenodd;fill:#DD2D01;}
	.st2{fill-rule:evenodd;clip-rule:evenodd;fill:#0190EA;}
	.st3{fill-rule:evenodd;clip-rule:evenodd;}
</style>
<polygon class="st0" points="62.9,25.3 18.2,54.4 6.7,66.3 3.8,73.7 5.4,85.5 20.1,100.5 35.8,109.2 55.9,115.8 70.1,118.4 
	78.3,118.4 87.2,112.4 92.4,105.2 93.3,91.1 93.3,67.2 93.3,53.3 92.4,43.2 91,34.8 85.6,29.6 78.5,25.3 70.1,24.5 "/>
<path class="st1" d="M39.7,54c0.4-2.5,2.7-4.3,5.3-3.9c0.2,0,0.5,0.1,0.7,0.2c13.8,4.3,26.4,10.7,38,19.2c2.1,1.5,2.5,4.4,1,6.5
	c-0.2,0.3-0.4,0.5-0.7,0.8c-11.7,10.1-23.6,17.7-35.5,23.3c-2.3,1.1-5.1,0.1-6.2-2.2c-0.1-0.2-0.2-0.4-0.2-0.6
	C38,83.8,37.4,69.4,39.7,54L39.7,54z"/>
<path class="st2" d="M3.9,11.7c0.6-3.9,2.9-7.4,6.3-9.6c3.4-2.1,7.5-2.7,11.4-1.5c41.1,12.8,78.8,31.8,113.1,56.9
	c6.1,4.5,7.4,13.1,2.9,19.2c-0.6,0.8-1.3,1.6-2.1,2.3c-34.9,30-70.1,52.7-105.5,69.3c-3.6,1.7-7.8,1.7-11.4,0.1
	c-3.6-1.6-6.4-4.7-7.5-8.5C-1,100-2.9,57.2,3.9,11.7L3.9,11.7z M88.6,103.7c-0.5,4.1-2.8,7.8-6.3,10s-7.8,2.7-11.7,1.4
	c-20.7-7.1-40-16.8-57.9-29c-3.6-2.4-5.8-6.4-6-10.7c-0.2-4.3,1.7-8.5,5-11.2c17.9-14.7,35.9-26.4,54-35.5c6.8-3.4,15-0.7,18.4,6.1
	c0.4,0.9,0.8,1.8,1,2.8C90.5,58.4,91.5,80.5,88.6,103.7L88.6,103.7z"/>
<path class="st3" d="M57.9,32.3"/>
</svg>
