<?xml version="1.0" encoding="utf-8"?>
<!-- Generator: Adobe Illustrator 26.3.0, SVG Export Plug-In . SVG Version: 6.00 Build 0)  -->
<svg version="1.1" id="Warstwa_1" xmlns="http://www.w3.org/2000/svg" xmlns:xlink="http://www.w3.org/1999/xlink" x="0px" y="0px"
	 viewBox="0 0 569 150" style="enable-background:new 0 0 569 150;" xml:space="preserve">
<style type="text/css">
	.st0{fill-rule:evenodd;clip-rule:evenodd;fill:#FFFFFF;}
	.st1{fill-rule:evenodd;clip-rule:evenodd;fill:#DD2D01;}
	.st2{fill-rule:evenodd;clip-rule:evenodd;fill:#0190EA;}
	.st3{fill-rule:evenodd;clip-rule:evenodd;}
</style>
<polygon class="st0" points="62.9,25.3 18.2,54.4 6.7,66.3 3.8,73.7 5.4,85.5 20.1,100.5 35.8,109.2 55.9,115.8 70.1,118.4 
	78.3,118.4 87.2,112.4 92.4,105.2 93.3,91.1 93.3,67.2 93.3,53.3 92.4,43.2 91,34.8 85.6,29.6 78.5,25.3 70.1,24.5 "/>
<path class="st1" d="M39.7,54c0.4-2.5,2.7-4.3,5.3-3.9c0.2,0,0.5,0.1,0.7,0.2c13.8,4.3,26.4,10.7,38,19.2c2.1,1.5,2.5,4.4,1,6.5
	c-0.2,0.3-0.4,0.5-0.7,0.8c-11.7,10.1-23.6,17.7-35.5,23.3c-2.3,1.1-5.1,0.1-6.2-2.2c-0.1-0.2-0.2-0.4-0.2-0.6
	C38,83.8,37.4,69.4,39.7,54L39.7,54z"/>
<path class="st2" d="M3.9,11.7c0.6-3.9,2.9-7.4,6.3-9.6c3.4-2.1,7.5-2.7,11.4-1.5c41.1,12.8,78.8,31.8,113.1,56.9
	c6.1,4.5,7.4,13.1,2.9,19.2c-0.6,0.8-1.3,1.6-2.1,2.3c-34.9,30-70.1,52.7-105.5,69.3c-3.6,1.7-7.8,1.7-11.4,0.1
	c-3.6-1.6-6.4-4.7-7.5-8.5C-1,100-2.9,57.2,3.9,11.7L3.9,11.7z M88.6,103.7c-0.5,4.1-2.8,7.8-6.3,10s-7.8,2.7-11.7,1.4
	c-20.7-7.1-40-16.8-57.9-29c-3.6-2.4-5.8-6.4-6-10.7c-0.2-4.3,1.7-8.5,5-11.2c17.9-14.7,35.9-26.4,54-35.5c6.8-3.4,15-0.7,18.4,6.1
	c0.4,0.9,0.8,1.8,1,2.8C90.5,58.4,91.5,80.5,88.6,103.7L88.6,103.7z"/>
<path class="st3" d="M57.9,32.3"/>
<g>
	<path d="M204.8,76.4c0,1.8-0.2,3.4-0.7,4.9s-1.1,2.7-1.8,3.8c-0.8,1.1-1.6,2-2.6,2.8c-1,0.8-2.1,1.4-3.1,1.9
		c-1.1,0.5-2.2,0.9-3.3,1.1c-1.1,0.2-2.2,0.4-3.1,0.4h-35.3v-9.1h35.3c1.8,0,3.1-0.5,4.1-1.5c1-1,1.5-2.4,1.5-4.1
		c0-0.8-0.1-1.6-0.4-2.3c-0.3-0.7-0.6-1.3-1.1-1.8c-0.5-0.5-1.1-0.9-1.8-1.2c-0.7-0.3-1.5-0.4-2.3-0.4h-21c-1.5,0-3.1-0.3-4.8-0.8
		c-1.7-0.5-3.3-1.4-4.8-2.5c-1.5-1.2-2.7-2.7-3.7-4.6c-1-1.9-1.5-4.2-1.5-7s0.5-5.1,1.5-6.9c1-1.9,2.2-3.4,3.7-4.6
		c1.5-1.2,3.1-2,4.8-2.6c1.7-0.5,3.3-0.8,4.8-0.8h31.1v9.1H169c-1.7,0-3.1,0.5-4.1,1.6c-1,1.1-1.5,2.4-1.5,4.2
		c0,1.8,0.5,3.1,1.5,4.2c1,1,2.3,1.5,4.1,1.5h21h0.1c1,0,2,0.2,3.1,0.4c1.1,0.2,2.2,0.6,3.3,1.1c1.1,0.5,2.1,1.2,3.1,2
		c1,0.8,1.9,1.7,2.6,2.8c0.8,1.1,1.4,2.4,1.8,3.8C204.5,72.9,204.8,74.6,204.8,76.4z"/>
	<path d="M244.3,62.3h-16v28.9h-9.2V62.3h-11.9v-9.1h11.9V40.8h9.2v12.4h16V62.3z"/>
	<path d="M283.3,62.3h-20.6c-1.2,0-2.2,0.3-2.8,0.9c-0.6,0.6-0.9,1.5-0.9,2.7v25.2h-9.1V66c0-1.6,0.2-3,0.6-4.2
		c0.4-1.2,0.9-2.3,1.6-3.3s1.4-1.8,2.3-2.4s1.8-1.2,2.7-1.6s1.9-0.7,2.9-0.9c1-0.2,1.9-0.3,2.7-0.3h20.6V62.3z"/>
	<path d="M330.1,65.8c0,1.3-0.2,2.6-0.7,4.1c-0.4,1.5-1.2,2.8-2.2,4.1c-1,1.3-2.3,2.3-3.9,3.1s-3.6,1.3-5.9,1.3H301v-8.7h16.5
		c1.2,0,2.2-0.4,2.9-1.1c0.7-0.8,1-1.7,1-2.8c0-1.2-0.4-2.1-1.1-2.8c-0.8-0.7-1.7-1-2.8-1H301c-1.2,0-2.2,0.4-2.9,1.1
		c-0.7,0.8-1,1.7-1,2.8v12.8c0,1.2,0.4,2.2,1.1,2.8s1.7,1,2.8,1h16.4v8.7H301c-1.3,0-2.6-0.2-4.1-0.7s-2.8-1.2-4.1-2.2
		s-2.3-2.3-3.1-3.9s-1.3-3.6-1.3-5.9V65.8c0-1.3,0.2-2.6,0.7-4.1c0.4-1.5,1.2-2.8,2.2-4.1c1-1.3,2.3-2.3,3.9-3.1s3.6-1.3,5.9-1.3
		h16.5c1.3,0,2.6,0.2,4.1,0.7c1.5,0.4,2.8,1.2,4.1,2.2c1.3,1,2.3,2.3,3.1,3.9C329.7,61.5,330.1,63.5,330.1,65.8z"/>
	<path d="M375.2,78.6c0,1.3-0.2,2.6-0.7,4.1s-1.2,2.8-2.2,4.1s-2.3,2.3-3.9,3.1s-3.6,1.3-5.9,1.3h-16.5c-1.3,0-2.6-0.2-4.1-0.7
		s-2.8-1.2-4.1-2.2s-2.3-2.3-3.1-3.9s-1.3-3.6-1.3-5.9c0-1.3,0.2-2.6,0.7-4.1s1.2-2.8,2.2-4.1c1-1.3,2.3-2.3,3.9-3.1
		s3.6-1.3,5.9-1.3h16.5v8.7h-16.5c-1.2,0-2.2,0.4-2.9,1.1c-0.7,0.8-1,1.7-1,2.8c0,1.2,0.4,2.1,1.2,2.8s1.7,1,2.8,1h16.4
		c1.2,0,2.2-0.4,2.9-1.1s1-1.7,1-2.8V65.8c0-1.2-0.4-2.1-1.1-2.8s-1.7-1.1-2.8-1.1h-20.1v-8.7h20.1c1.3,0,2.6,0.2,4.1,0.7
		c1.5,0.4,2.8,1.2,4.1,2.2c1.3,1,2.3,2.3,3.1,3.9c0.8,1.6,1.3,3.6,1.3,5.9V78.6z"/>
	<path d="M416.9,91.2h-9.1V66c0-1.2-0.3-2.1-0.9-2.7c-0.6-0.6-1.6-0.9-2.8-0.9h-11.9v28.9H383V57.7c0-0.6,0.1-1.2,0.4-1.8
		c0.2-0.6,0.6-1,1-1.4c0.4-0.4,0.9-0.7,1.5-1c0.6-0.2,1.2-0.4,1.8-0.4h16.5c1.3,0,2.6,0.2,4.1,0.7c1.5,0.4,2.8,1.2,4.1,2.1v-2.8
		h12.4c0.9,0,1.8,0.1,2.7,0.3c1,0.2,1.9,0.5,2.9,0.9s1.9,1,2.7,1.6s1.6,1.5,2.3,2.4s1.2,2,1.6,3.3c0.4,1.2,0.6,2.6,0.6,4.2v25.2
		h-9.1V66c0-1.2-0.3-2.1-0.9-2.7c-0.6-0.6-1.5-0.9-2.8-0.9h-8.2c0.3,1.1,0.5,2.3,0.5,3.7V91.2z"/>
	<path d="M487.8,78.4c0,1.6-0.2,3-0.6,4.2s-0.9,2.4-1.6,3.3s-1.4,1.8-2.3,2.4s-1.8,1.2-2.7,1.6s-1.9,0.7-2.9,0.9s-1.9,0.3-2.7,0.3
		h-16.5v-9.1H475c1.2,0,2.1-0.3,2.7-0.9s0.9-1.5,0.9-2.7V66.1c0-1.3-0.3-2.2-0.9-2.8c-0.6-0.6-1.5-0.9-2.7-0.9h-16.4
		c-1.2,0-2.2,0.3-2.8,0.9c-0.6,0.6-0.9,1.5-0.9,2.7v37.1h-9.1V66c0-1.6,0.2-3,0.6-4.2c0.4-1.2,0.9-2.3,1.6-3.3s1.4-1.8,2.3-2.4
		s1.8-1.2,2.7-1.6s1.9-0.7,2.9-0.9c1-0.2,1.9-0.3,2.7-0.3H475c1.6,0,3,0.2,4.2,0.6c1.2,0.4,2.3,0.9,3.3,1.6c0.9,0.7,1.8,1.4,2.4,2.3
		c0.7,0.9,1.2,1.8,1.6,2.7s0.7,1.9,0.9,2.9c0.2,1,0.3,1.9,0.3,2.7V78.4z"/>
	<path d="M512.3,91.2h-4.1c-1.3,0-2.7-0.2-4.2-0.7s-2.9-1.2-4.2-2.2s-2.4-2.3-3.2-4s-1.3-3.6-1.3-6V37.1h9.1v41.2
		c0,1.1,0.4,2,1.1,2.7s1.6,1,2.6,1h4.1V91.2z"/>
	<path d="M547.3,91.2h-16.5c-1.3,0-2.7-0.2-4.2-0.7s-2.9-1.2-4.2-2.2s-2.4-2.3-3.2-4s-1.3-3.6-1.3-6V53.2h9.1v25.2
		c0,1.2,0.3,2.1,0.9,2.7s1.6,0.9,2.8,0.9h16.4V91.2z M560.1,94.9c0,1.6-0.2,3-0.6,4.2s-0.9,2.4-1.6,3.3s-1.4,1.8-2.3,2.4
		s-1.8,1.2-2.7,1.6s-1.9,0.7-2.9,0.9s-1.9,0.3-2.7,0.3h-16.5v-9.1h16.5c1.2,0,2.1-0.3,2.7-0.9s0.9-1.5,0.9-2.7V53.2h9.1V94.9z"/>
</g>
</svg>
